<svg width="16" height="15" viewBox="0 0 16 15" fill="none" xmlns="http://www.w3.org/2000/svg">
<path d="M8.17334 0C6.68998 0 5.23993 0.439867 4.00657 1.26398C2.7732 2.08809 1.8119 3.25943 1.24425 4.62987C0.676589 6.00032 0.528065 7.50832 0.817454 8.96318C1.10684 10.418 1.82115 11.7544 2.87004 12.8033C3.91894 13.8522 5.25531 14.5665 6.71016 14.8559C8.16502 15.1453 9.67302 14.9967 11.0435 14.4291C12.4139 13.8614 13.5853 12.9001 14.4094 11.6668C15.2335 10.4334 15.6733 8.98336 15.6733 7.5C15.6712 5.51152 14.8804 3.60509 13.4743 2.19902C12.0683 0.79295 10.1618 0.00209987 8.17334 0ZM8.17334 13.8462C6.91819 13.8462 5.69123 13.474 4.64761 12.7766C3.60399 12.0793 2.79059 11.0882 2.31026 9.92857C1.82994 8.76896 1.70426 7.49296 1.94913 6.26193C2.194 5.03089 2.79841 3.90012 3.68593 3.01259C4.57346 2.12507 5.70424 1.52065 6.93527 1.27579C8.1663 1.03092 9.4423 1.15659 10.6019 1.63692C11.7615 2.11724 12.7527 2.93065 13.45 3.97426C14.1473 5.01788 14.5195 6.24485 14.5195 7.5C14.5176 9.18252 13.8484 10.7956 12.6586 11.9853C11.4689 13.175 9.85586 13.8442 8.17334 13.8462ZM9.32719 10.9615C9.32719 11.1145 9.26641 11.2613 9.15821 11.3695C9.05002 11.4777 8.90327 11.5385 8.75026 11.5385C8.44425 11.5385 8.15076 11.4169 7.93437 11.2005C7.71798 10.9841 7.59642 10.6906 7.59642 10.3846V7.5C7.44341 7.5 7.29667 7.43922 7.18847 7.33102C7.08028 7.22283 7.0195 7.07608 7.0195 6.92308C7.0195 6.77007 7.08028 6.62332 7.18847 6.51513C7.29667 6.40694 7.44341 6.34615 7.59642 6.34615C7.90244 6.34615 8.19592 6.46772 8.41231 6.68411C8.6287 6.90049 8.75026 7.19398 8.75026 7.5V10.3846C8.90327 10.3846 9.05002 10.4454 9.15821 10.5536C9.26641 10.6618 9.32719 10.8085 9.32719 10.9615ZM7.0195 4.32692C7.0195 4.15577 7.07025 3.98845 7.16534 3.84614C7.26043 3.70383 7.39558 3.59291 7.55371 3.52741C7.71184 3.46191 7.88584 3.44477 8.05371 3.47817C8.22158 3.51156 8.37577 3.59398 8.4968 3.715C8.61782 3.83603 8.70024 3.99023 8.73364 4.15809C8.76703 4.32596 8.74989 4.49996 8.68439 4.65809C8.61889 4.81622 8.50797 4.95137 8.36566 5.04646C8.22335 5.14155 8.05604 5.19231 7.88488 5.19231C7.65536 5.19231 7.43525 5.10113 7.27296 4.93884C7.11067 4.77655 7.0195 4.55644 7.0195 4.32692Z" fill="#240B00"/>
</svg>
