<svg width="24" height="24" viewBox="0 0 24 24" fill="none" xmlns="http://www.w3.org/2000/svg">
<path d="M19.1154 3.42308H16.9808V2.71154C16.9808 2.52283 16.9058 2.34184 16.7724 2.2084C16.6389 2.07497 16.458 2 16.2692 2C16.0805 2 15.8995 2.07497 15.7661 2.2084C15.6327 2.34184 15.5577 2.52283 15.5577 2.71154V3.42308H8.44232V2.71154C8.44232 2.52283 8.36735 2.34184 8.23391 2.2084C8.10047 2.07497 7.91949 2 7.73078 2C7.54207 2 7.36108 2.07497 7.22765 2.2084C7.09421 2.34184 7.01924 2.52283 7.01924 2.71154V3.42308H4.88462C4.5072 3.42308 4.14524 3.57301 3.87836 3.83989C3.61148 4.10677 3.46155 4.46873 3.46155 4.84615V19.0769C3.46155 19.4543 3.61148 19.8163 3.87836 20.0832C4.14524 20.3501 4.5072 20.5 4.88462 20.5H19.1154C19.4928 20.5 19.8548 20.3501 20.1217 20.0832C20.3885 19.8163 20.5385 19.4543 20.5385 19.0769V4.84615C20.5385 4.46873 20.3885 4.10677 20.1217 3.83989C19.8548 3.57301 19.4928 3.42308 19.1154 3.42308ZM7.01924 4.84615V5.55769C7.01924 5.7464 7.09421 5.92739 7.22765 6.06083C7.36108 6.19426 7.54207 6.26923 7.73078 6.26923C7.91949 6.26923 8.10047 6.19426 8.23391 6.06083C8.36735 5.92739 8.44232 5.7464 8.44232 5.55769V4.84615H15.5577V5.55769C15.5577 5.7464 15.6327 5.92739 15.7661 6.06083C15.8995 6.19426 16.0805 6.26923 16.2692 6.26923C16.458 6.26923 16.6389 6.19426 16.7724 6.06083C16.9058 5.92739 16.9808 5.7464 16.9808 5.55769V4.84615H19.1154V7.69231H4.88462V4.84615H7.01924ZM19.1154 19.0769H4.88462V9.11538H19.1154V19.0769Z" fill="#594B45"/>
</svg>
