<svg width="25" height="25" viewBox="0 0 25 25" fill="none" xmlns="http://www.w3.org/2000/svg">
<path d="M14.6765 10.0929L9.61647 15.1529C8.94547 14.4819 8.56851 13.5718 8.56851 12.6229C8.56851 12.153 8.66106 11.6878 8.84087 11.2537C9.02068 10.8196 9.28423 10.4251 9.61647 10.0929C9.94872 9.76064 10.3431 9.49709 10.7772 9.31728C11.2113 9.13747 11.6766 9.04492 12.1465 9.04492C13.0954 9.04492 14.0055 9.42188 14.6765 10.0929Z" stroke="#757575" stroke-width="1.5" stroke-linecap="round" stroke-linejoin="round"/>
<path d="M17.9665 6.39303C16.2165 5.07303 14.2165 4.35303 12.1465 4.35303C8.61648 4.35303 5.32648 6.43303 3.03648 10.033C2.13648 11.443 2.13648 13.813 3.03648 15.223C3.82648 16.463 4.74648 17.533 5.74648 18.393M8.56648 20.153C9.70648 20.633 10.9165 20.893 12.1465 20.893C15.6765 20.893 18.9665 18.813 21.2565 15.213C22.1565 13.803 22.1565 11.433 21.2565 10.023C20.9265 9.50303 20.5665 9.01303 20.1965 8.55303" stroke="#757575" stroke-width="1.5" stroke-linecap="round" stroke-linejoin="round"/>
<path d="M15.6565 13.323C15.521 14.0206 15.1802 14.6618 14.6777 15.1643C14.1752 15.6667 13.5341 16.0076 12.8365 16.143M9.61648 15.153L2.14648 22.623M22.1465 2.62305L14.6765 10.093" stroke="#757575" stroke-width="1.5" stroke-linecap="round" stroke-linejoin="round"/>
</svg>
