<svg width="24" height="24" viewBox="0 0 24 24" fill="none" xmlns="http://www.w3.org/2000/svg">
<path fill-rule="evenodd" clip-rule="evenodd" d="M12.0001 8C9.79088 8 7.99998 9.79086 7.99998 12C7.99998 14.2091 9.79088 16 12.0001 16C14.2093 16 16.0002 14.2091 16.0002 12C16.0002 9.79086 14.2093 8 12.0001 8ZM10 12C10 10.8954 10.8955 10 12.0001 10C13.1047 10 14.0001 10.8954 14.0001 12C14.0001 13.1046 13.1047 14 12.0001 14C10.8955 14 10 13.1046 10 12Z" fill="#B0B8BF"/>
<path fill-rule="evenodd" clip-rule="evenodd" d="M22.8682 11.5032C22.8682 11.5032 22.8686 11.5039 22.0003 12C22.8686 12.4961 22.8682 12.4968 22.8682 12.4968L22.8666 12.4996L22.8631 12.5056L22.8517 12.5252C22.8422 12.5415 22.8287 12.5643 22.8114 12.5931C22.7768 12.6508 22.7268 12.7327 22.6618 12.8354C22.5319 13.0408 22.3418 13.3299 22.0953 13.675C21.6035 14.3634 20.881 15.2835 19.9574 16.2071C18.1355 18.0289 15.3934 20 12.0001 20C8.60675 20 5.8646 18.0289 4.04278 16.2071C3.11918 15.2835 2.3966 14.3634 1.90486 13.675C1.65837 13.3299 1.46825 13.0408 1.33834 12.8354C1.27335 12.7327 1.22332 12.6508 1.18872 12.5931C1.17142 12.5643 1.15797 12.5415 1.14842 12.5252L1.13705 12.5056L1.13357 12.4996L1.13239 12.4976C1.13239 12.4976 1.13158 12.4961 1.99984 12C1.13158 11.5039 1.13194 11.5032 1.13194 11.5032L1.13357 11.5004L1.13705 11.4944L1.14842 11.4748C1.15797 11.4585 1.17142 11.4357 1.18872 11.4069C1.22332 11.3492 1.27335 11.2673 1.33834 11.1646C1.46825 10.9592 1.65837 10.6701 1.90486 10.325C2.3966 9.63659 3.11918 8.71648 4.04278 7.79289C5.8646 5.97111 8.60675 4 12.0001 4C15.3934 4 18.1355 5.97111 19.9574 7.79289C20.881 8.71648 21.6035 9.63659 22.0953 10.325C22.3418 10.6701 22.5319 10.9592 22.6618 11.1646C22.7268 11.2673 22.7768 11.3492 22.8114 11.4069C22.8287 11.4357 22.8422 11.4585 22.8517 11.4748L22.8631 11.4944L22.8666 11.5004L22.8682 11.5032ZM3.53236 12.5125C3.394 12.3188 3.27618 12.1458 3.17985 12C3.27618 11.8542 3.394 11.6812 3.53236 11.4875C3.97814 10.8634 4.63059 10.0335 5.45703 9.20711C7.13528 7.52889 9.39325 6 12.0001 6C14.6069 6 16.8649 7.52889 18.5431 9.20711C19.3695 10.0335 20.022 10.8634 20.4678 11.4875C20.6061 11.6812 20.724 11.8542 20.8203 12C20.724 12.1458 20.6061 12.3188 20.4678 12.5125C20.022 13.1366 19.3695 13.9665 18.5431 14.7929C16.8649 16.4711 14.6069 18 12.0001 18C9.39325 18 7.13528 16.4711 5.45703 14.7929C4.63059 13.9665 3.97814 13.1366 3.53236 12.5125Z" fill="#B0B8BF"/>
<path d="M22.0003 12L22.8682 11.5032C23.0439 11.8107 23.0439 12.1893 22.8682 12.4968L22.0003 12Z" fill="#B0B8BF"/>
<path d="M1.13194 11.5032L1.99984 12L1.13158 12.4961C0.9559 12.1887 0.95626 11.8107 1.13194 11.5032Z" fill="#B0B8BF"/>
</svg>
