<svg width="24" height="24" viewBox="0 0 24 24" fill="none" xmlns="http://www.w3.org/2000/svg">
<path d="M14.1358 18.5037C14.1358 19.0653 13.7675 19.8018 13.298 20.0872L12 20.9249C10.794 21.6706 9.11852 20.8329 9.11852 19.3415V14.4163C9.11852 13.7627 8.75029 12.9249 8.37284 12.4646L4.83772 8.7454C4.36821 8.27589 4 7.44736 4 6.8858V4.75C4 3.63608 4.83776 2.79834 5.85963 2.79834H18.1404C19.1622 2.79834 20 3.63607 20 4.65794V6.70167C20 7.44735 19.5305 8.37716 19.0702 8.83746" stroke="#757575" stroke-width="1.5" stroke-miterlimit="10" stroke-linecap="round" stroke-linejoin="round"/>
<path d="M15.7469 16.1565C17.3739 16.1565 18.6928 14.8376 18.6928 13.2106C18.6928 11.5836 17.3739 10.2646 15.7469 10.2646C14.1199 10.2646 12.801 11.5836 12.801 13.2106C12.801 14.8376 14.1199 16.1565 15.7469 16.1565Z" stroke="#757575" stroke-width="1.5" stroke-linecap="round" stroke-linejoin="round"/>
<path d="M19.2452 16.7087L18.3246 15.7881" stroke="#757575" stroke-width="1.5" stroke-linecap="round" stroke-linejoin="round"/>
</svg>
