<svg width="19" height="20" viewBox="0 0 19 20" fill="none" xmlns="http://www.w3.org/2000/svg">
<path d="M18 18.3473C18 15.0873 14.15 12.4507 9.41001 12.4507C4.67001 12.4507 0.820007 15.0873 0.820007 18.3473M9.41001 9.92365C10.7361 9.92365 12.0079 9.4799 12.9455 8.69003C13.8832 7.90016 14.41 6.82887 14.41 5.71182C14.41 4.59478 13.8832 3.52348 12.9455 2.73361C12.0079 1.94374 10.7361 1.5 9.41001 1.5C8.08393 1.5 6.81216 1.94374 5.87447 2.73361C4.93679 3.52348 4.41001 4.59478 4.41001 5.71182C4.41001 6.82887 4.93679 7.90016 5.87447 8.69003C6.81216 9.4799 8.08393 9.92365 9.41001 9.92365Z" stroke="#757575" stroke-width="1.5" stroke-linecap="round" stroke-linejoin="round"/>
</svg>
