<svg width="20" height="20" viewBox="0 0 20 20" fill="none" xmlns="http://www.w3.org/2000/svg">
<path d="M15.8333 6.75938V15.185C15.8333 15.3569 15.765 15.5218 15.6435 15.6433C15.5219 15.7649 15.3571 15.8332 15.1852 15.8332H6.7595C6.5876 15.8332 6.42275 15.7649 6.3012 15.6433C6.17966 15.5218 6.11137 15.3569 6.11137 15.185C6.11137 15.0131 6.17966 14.8483 6.3012 14.7267C6.42275 14.6052 6.5876 14.5369 6.7595 14.5369H13.6207L4.35656 5.27354C4.23495 5.15193 4.16663 4.98698 4.16663 4.81499C4.16663 4.643 4.23495 4.47806 4.35656 4.35644C4.47818 4.23483 4.64312 4.1665 4.81511 4.1665C4.9871 4.1665 5.15205 4.23483 5.27367 4.35644L14.537 13.6206V6.75938C14.537 6.58748 14.6053 6.42263 14.7269 6.30108C14.8484 6.17953 15.0133 6.11125 15.1852 6.11125C15.3571 6.11125 15.5219 6.17953 15.6435 6.30108C15.765 6.42263 15.8333 6.58748 15.8333 6.75938Z" fill="#34B529"/>
</svg>
