<svg xmlns="http://www.w3.org/2000/svg" width="37" height="36" viewBox="0 0 37 36">
    <defs>
        <radialGradient id="grad1" cx="9.095" cy="8.55" r="25.76" gradientUnits="userSpaceOnUse">
            <stop offset="0" stop-color="#E5BEAF"/>
            <stop offset="1" stop-color="#421803"/>
        </radialGradient>
        <linearGradient id="grad2" x1="18.75" y1="18" x2="34.95" y2="34.2" gradientUnits="userSpaceOnUse">
            <stop offset="0" stop-color="#FFDE9C"/>
            <stop offset="1" stop-color="#FFA928"/>
        </linearGradient>
    </defs>
    <clipPath id="clip0">
        <rect width="36" height="36" x="0.75" fill="white"/>
    </clipPath>
    <g clip-path="url(#clip0)">
        <path d="M9.213 5.4C8.401 5.402 7.623 5.725 7.049 6.299C6.475 6.873 6.152 7.651 6.15 8.462V24.388C6.15 26.073 7.527 27.45 9.213 27.45H25.138C26.823 27.45 28.2 26.073 28.2 24.388V8.462C28.2 6.777 26.823 5.4 25.138 5.4H9.213Z" fill="url(#grad1)"/>
        <circle cx="23.3" cy="10.3" r="2.45" fill="white"/>
        <path d="M16.129 13.329C15.891 12.942 15.477 12.75 15.062 12.75C14.648 12.75 14.231 12.942 13.994 13.329L8.784 21.799C8.268 22.636 8.903 23.775 9.886 23.775H24.49C25.466 23.774 26.087 22.623 25.552 21.806V21.803L21.596 15.776C21.36 15.417 20.955 15.2 20.524 15.2H20.522C20.093 15.201 19.691 15.418 19.455 15.777L18.515 17.208L16.129 13.329Z" fill="white"/>
        <circle cx="26.85" cy="26.1" r="8.1" fill="#FFBF4E" fill-opacity="0.8"/>
        <circle cx="26.85" cy="26.1" r="8.1" fill="white" fill-opacity="0.08"/>
        <path d="M26.85 32.625C30.454 32.625 33.375 29.704 33.375 26.1C33.375 22.496 30.454 19.575 26.85 19.575C23.246 19.575 20.325 22.496 20.325 26.1C20.325 29.704 23.246 32.625 26.85 32.625ZM34.95 26.1C34.95 30.573 31.323 34.2 26.85 34.2C22.376 34.2 18.75 30.573 18.75 26.1C18.75 21.626 22.376 18 26.85 18C31.323 18 34.95 21.626 34.95 26.1Z" fill="url(#grad2)"/>
        <path d="M26.653 30.175C26.591 30.149 26.534 30.111 26.486 30.063L23.401 26.978C23.304 26.881 23.25 26.75 23.25 26.614C23.25 26.478 23.304 26.347 23.401 26.25C23.497 26.154 23.628 26.099 23.764 26.099C23.901 26.099 24.032 26.154 24.128 26.25L26.336 28.458V23.014C26.336 22.878 26.39 22.747 26.486 22.651C26.583 22.554 26.714 22.5 26.85 22.5C26.986 22.5 27.117 22.554 27.214 22.651C27.31 22.747 27.364 22.878 27.364 23.014V28.458L29.572 26.25C29.668 26.154 29.799 26.099 29.935 26.099C30.072 26.099 30.203 26.154 30.299 26.25C30.396 26.347 30.45 26.478 30.45 26.614C30.45 26.75 30.396 26.881 30.299 26.978L27.214 30.063C27.166 30.111 27.109 30.149 27.047 30.175C26.985 30.201 26.918 30.214 26.85 30.214C26.782 30.214 26.715 30.201 26.653 30.175Z" fill="white"/>
    </g>
</svg>
