<svg width="32" height="32" viewBox="0 0 32 32" fill="none" xmlns="http://www.w3.org/2000/svg">
<path d="M22.7281 29.485H20.8857C20.6142 29.485 20.3539 29.377 20.1619 29.1846C19.97 28.9923 19.8622 28.7314 19.8622 28.4594C19.8622 28.1874 19.97 27.9265 20.1619 27.7342C20.3539 27.5418 20.6142 27.4337 20.8857 27.4337H22.7281C23.9225 27.4337 25.068 26.9583 25.9126 26.112C26.7572 25.2657 27.2316 24.1178 27.2316 22.9209V21.0748C27.2316 20.8028 27.3395 20.5419 27.5314 20.3495C27.7234 20.1572 27.9837 20.0491 28.2552 20.0491C28.5266 20.0491 28.787 20.1572 28.9789 20.3495C29.1709 20.5419 29.2787 20.8028 29.2787 21.0748V22.9209C29.2751 24.6607 28.5838 26.3283 27.3561 27.5585C26.1284 28.7887 24.4643 29.4814 22.7281 29.485ZM12.288 29.485H9.21734C7.48111 29.4814 5.817 28.7887 4.58929 27.5585C3.36159 26.3283 2.67026 24.6607 2.66666 22.9209V19.844C2.66666 19.572 2.77449 19.3111 2.96644 19.1188C3.15839 18.9264 3.41874 18.8184 3.6902 18.8184C3.96166 18.8184 4.22201 18.9264 4.41396 19.1188C4.60591 19.3111 4.71374 19.572 4.71374 19.844V22.9209C4.71374 24.1178 5.18823 25.2657 6.03281 26.112C6.8774 26.9583 8.02292 27.4337 9.21734 27.4337H12.2743C12.5458 27.4337 12.8061 27.5418 12.9981 27.7342C13.19 27.9265 13.2978 28.1874 13.2978 28.4594C13.2978 28.7314 13.19 28.9923 12.9981 29.1846C12.8061 29.377 12.5458 29.485 12.2743 29.485H12.288ZM18.4292 23.9466H13.5162C12.8799 24.0211 12.2351 23.9503 11.63 23.7396C11.0249 23.5288 10.4753 23.1836 10.0224 22.7297C9.56939 22.2758 9.2248 21.725 9.01448 21.1187C8.80416 20.5124 8.73354 19.8662 8.8079 19.2286V17.1773H7.44318C7.17172 17.1773 6.91137 17.0693 6.71942 16.8769C6.52747 16.6846 6.41964 16.4237 6.41964 16.1517C6.41964 15.8797 6.52747 15.6188 6.71942 15.4265C6.91137 15.2341 7.17172 15.1261 7.44318 15.1261H8.8079V13.0748C8.73354 12.4372 8.80416 11.7911 9.01448 11.1847C9.2248 10.5784 9.56939 10.0276 10.0224 9.57375C10.4753 9.11985 11.0249 8.77459 11.63 8.56384C12.2351 8.35309 12.8799 8.28233 13.5162 8.35685H18.4292C19.0655 8.28233 19.7103 8.35309 20.3154 8.56384C20.9205 8.77459 21.4701 9.11985 21.9231 9.57375C22.376 10.0276 22.7206 10.5784 22.9309 11.1847C23.1412 11.7911 23.2118 12.4372 23.1375 13.0748V15.1261H24.5568C24.8283 15.1261 25.0886 15.2341 25.2806 15.4265C25.4725 15.6188 25.5803 15.8797 25.5803 16.1517C25.5803 16.4237 25.4725 16.6846 25.2806 16.8769C25.0886 17.0693 24.8283 17.1773 24.5568 17.1773H23.1921V19.2286C23.2654 19.8708 23.1921 20.5212 22.9778 21.1309C22.7636 21.7405 22.4138 22.2934 21.9551 22.7477C21.4964 23.2021 20.9407 23.5461 20.3299 23.7538C19.7191 23.9615 19.0692 24.0274 18.4292 23.9466ZM10.9096 17.1773V19.2286C10.9096 21.1158 11.6738 21.8953 13.639 21.8953H18.552C20.4353 21.8953 21.2132 21.1158 21.2132 19.2286V17.1773H10.9096ZM10.9096 15.1261H21.145V13.0748C21.145 11.1739 20.3671 10.4081 18.4838 10.4081H13.5708C11.6738 10.4081 10.8414 11.1739 10.8414 13.0748L10.9096 15.1261ZM28.3098 13.4851C28.0383 13.4851 27.778 13.377 27.586 13.1847C27.3941 12.9923 27.2862 12.7314 27.2862 12.4594V9.38249C27.2862 8.18561 26.8118 7.03774 25.9672 6.19142C25.1226 5.3451 23.9771 4.86964 22.7827 4.86964H19.7121C19.4406 4.86964 19.1802 4.76159 18.9883 4.56924C18.7963 4.3769 18.6885 4.11602 18.6885 3.844C18.6885 3.57198 18.7963 3.31114 18.9883 3.1188C19.1802 2.92645 19.4406 2.81836 19.7121 2.81836H22.7827C24.5189 2.82197 26.183 3.51472 27.4107 4.74494C28.6384 5.97517 29.3297 7.64269 29.3333 9.38249V12.4594C29.3316 12.5983 29.3021 12.7353 29.2467 12.8626C29.1912 12.9898 29.1108 13.1047 29.0103 13.2003C28.9098 13.2959 28.7912 13.3703 28.6615 13.4192C28.5318 13.4681 28.3937 13.4905 28.2552 13.4851H28.3098ZM3.7448 13.4851C3.47334 13.4851 3.21299 13.377 3.02104 13.1847C2.82909 12.9923 2.72126 12.7314 2.72126 12.4594V9.38249C2.72126 7.64158 3.41141 5.97199 4.6399 4.74098C5.86838 3.50997 7.53456 2.81836 9.2719 2.81836H12.2743C12.5458 2.81836 12.8061 2.92645 12.9981 3.1188C13.19 3.31114 13.2978 3.57198 13.2978 3.844C13.2978 4.11602 13.19 4.3769 12.9981 4.56924C12.8061 4.76159 12.5458 4.86964 12.2743 4.86964H9.20368C8.00926 4.86964 6.86374 5.3451 6.01915 6.19142C5.17457 7.03774 4.70012 8.18561 4.70012 9.38249V12.4594C4.69668 12.728 4.58957 12.9848 4.4013 13.1761C4.21302 13.3673 3.95817 13.478 3.6902 13.4851H3.7448Z" fill="#F89C1C"/>
</svg>
