<svg width="52" height="52" viewBox="0 0 52 52" fill="none" xmlns="http://www.w3.org/2000/svg">
<path d="M0 26C0 11.6406 11.6406 0 26 0C40.3594 0 52 11.6406 52 26C52 40.3594 40.3594 52 26 52C11.6406 52 0 40.3594 0 26Z" fill="white"/>
<path d="M2 26C2 12.7452 12.7452 2 26 2C39.2548 2 50 12.7452 50 26C50 39.2548 39.2548 50 26 50C12.7452 50 2 39.2548 2 26Z" fill="#6E361A"/>
<path d="M37.2035 30.8388V30.8308L37.1954 30.8388H37.2035Z" fill="#EFA320"/>
<path fill-rule="evenodd" clip-rule="evenodd" d="M25.978 33.7106C23.2217 33.7087 20.5788 32.6171 18.6298 30.6755C16.6808 28.7339 15.5851 26.1011 15.5831 23.3552H10C10 27.5826 11.6857 31.6368 14.6863 34.626C17.6869 37.6152 21.7565 39.2945 26 39.2945C30.2435 39.2945 34.3131 37.6152 37.3137 34.626C40.3143 31.6368 42 27.5826 42 23.3552H36.3728C36.3709 26.1011 35.2751 28.7339 33.3261 30.6755C31.3771 32.6171 28.7343 33.7087 25.978 33.7106Z" fill="#EFA320"/>
<path fill-rule="evenodd" clip-rule="evenodd" d="M31.0394 23.3552C31.0398 23.4305 31.0236 23.5049 30.9919 23.5732C30.9601 23.6415 30.9137 23.702 30.8558 23.7504C29.9845 24.3539 29.1639 25.027 28.4022 25.7629C27.6572 26.5189 26.9811 27.3394 26.3819 28.2146C26.3304 28.27 26.2679 28.3142 26.1983 28.3445C26.1288 28.3747 26.0538 28.3903 25.9779 28.3903C25.902 28.3903 25.827 28.3747 25.7575 28.3445C25.6879 28.3142 25.6254 28.27 25.5739 28.2146C24.9719 27.3414 24.2961 26.5212 23.5537 25.7629C22.7902 25.0259 21.9671 24.3528 21.0927 23.7504C21.038 23.6999 20.9941 23.6388 20.9638 23.5708C20.9335 23.5029 20.9174 23.4296 20.9164 23.3552H31.0394Z" fill="#EFA320"/>
<path fill-rule="evenodd" clip-rule="evenodd" d="M25.9782 13C23.2213 13 20.5774 14.091 18.628 16.033C16.6785 17.975 15.5834 20.609 15.5834 23.3554H20.9167C20.918 23.28 20.9342 23.2057 20.9644 23.1366C20.9947 23.0675 21.0384 23.0051 21.093 22.9529C21.9695 22.3532 22.7928 21.6799 23.554 20.9404C24.2983 20.1838 24.9744 19.3634 25.5742 18.4887C25.6258 18.4333 25.6883 18.3891 25.7578 18.3589C25.8273 18.3286 25.9024 18.313 25.9782 18.313C26.0541 18.313 26.1291 18.3286 26.1987 18.3589C26.2682 18.3891 26.3307 18.4333 26.3823 18.4887C26.9794 19.3655 27.6556 20.1861 28.4025 20.9404C29.162 21.6789 29.9828 22.3521 30.8561 22.9529C30.9138 23.003 30.96 23.0649 30.9917 23.1343C31.0234 23.2038 31.0398 23.2791 31.0398 23.3554H36.3731C36.3731 20.609 35.2779 17.975 33.3285 16.033C31.3791 14.091 28.7351 13 25.9782 13Z" fill="#EFA320"/>
</svg>
