<svg width="24" height="24" viewBox="0 0 24 24" fill="none" xmlns="http://www.w3.org/2000/svg">
<path d="M20.25 5H16.5V4.25C16.5 3.65326 16.2629 3.08097 15.841 2.65901C15.419 2.23705 14.8467 2 14.25 2H9.75C9.15326 2 8.58097 2.23705 8.15901 2.65901C7.73705 3.08097 7.5 3.65326 7.5 4.25V5H3.75C3.55109 5 3.36032 5.07902 3.21967 5.21967C3.07902 5.36032 3 5.55109 3 5.75C3 5.94891 3.07902 6.13968 3.21967 6.28033C3.36032 6.42098 3.55109 6.5 3.75 6.5H4.5V20C4.5 20.3978 4.65804 20.7794 4.93934 21.0607C5.22064 21.342 5.60218 21.5 6 21.5H18C18.3978 21.5 18.7794 21.342 19.0607 21.0607C19.342 20.7794 19.5 20.3978 19.5 20V6.5H20.25C20.4489 6.5 20.6397 6.42098 20.7803 6.28033C20.921 6.13968 21 5.94891 21 5.75C21 5.55109 20.921 5.36032 20.7803 5.21967C20.6397 5.07902 20.4489 5 20.25 5ZM9 4.25C9 4.05109 9.07902 3.86032 9.21967 3.71967C9.36032 3.57902 9.55109 3.5 9.75 3.5H14.25C14.4489 3.5 14.6397 3.57902 14.7803 3.71967C14.921 3.86032 15 4.05109 15 4.25V5H9V4.25ZM18 20H6V6.5H18V20ZM10.5 10.25V16.25C10.5 16.4489 10.421 16.6397 10.2803 16.7803C10.1397 16.921 9.94891 17 9.75 17C9.55109 17 9.36032 16.921 9.21967 16.7803C9.07902 16.6397 9 16.4489 9 16.25V10.25C9 10.0511 9.07902 9.86032 9.21967 9.71967C9.36032 9.57902 9.55109 9.5 9.75 9.5C9.94891 9.5 10.1397 9.57902 10.2803 9.71967C10.421 9.86032 10.5 10.0511 10.5 10.25ZM15 10.25V16.25C15 16.4489 14.921 16.6397 14.7803 16.7803C14.6397 16.921 14.4489 17 14.25 17C14.0511 17 13.8603 16.921 13.7197 16.7803C13.579 16.6397 13.5 16.4489 13.5 16.25V10.25C13.5 10.0511 13.579 9.86032 13.7197 9.71967C13.8603 9.57902 14.0511 9.5 14.25 9.5C14.4489 9.5 14.6397 9.57902 14.7803 9.71967C14.921 9.86032 15 10.0511 15 10.25Z" fill="#7F7F7F" fill-opacity="0.5" style="mix-blend-mode:luminosity"/>
<path d="M20.25 5H16.5V4.25C16.5 3.65326 16.2629 3.08097 15.841 2.65901C15.419 2.23705 14.8467 2 14.25 2H9.75C9.15326 2 8.58097 2.23705 8.15901 2.65901C7.73705 3.08097 7.5 3.65326 7.5 4.25V5H3.75C3.55109 5 3.36032 5.07902 3.21967 5.21967C3.07902 5.36032 3 5.55109 3 5.75C3 5.94891 3.07902 6.13968 3.21967 6.28033C3.36032 6.42098 3.55109 6.5 3.75 6.5H4.5V20C4.5 20.3978 4.65804 20.7794 4.93934 21.0607C5.22064 21.342 5.60218 21.5 6 21.5H18C18.3978 21.5 18.7794 21.342 19.0607 21.0607C19.342 20.7794 19.5 20.3978 19.5 20V6.5H20.25C20.4489 6.5 20.6397 6.42098 20.7803 6.28033C20.921 6.13968 21 5.94891 21 5.75C21 5.55109 20.921 5.36032 20.7803 5.21967C20.6397 5.07902 20.4489 5 20.25 5ZM9 4.25C9 4.05109 9.07902 3.86032 9.21967 3.71967C9.36032 3.57902 9.55109 3.5 9.75 3.5H14.25C14.4489 3.5 14.6397 3.57902 14.7803 3.71967C14.921 3.86032 15 4.05109 15 4.25V5H9V4.25ZM18 20H6V6.5H18V20ZM10.5 10.25V16.25C10.5 16.4489 10.421 16.6397 10.2803 16.7803C10.1397 16.921 9.94891 17 9.75 17C9.55109 17 9.36032 16.921 9.21967 16.7803C9.07902 16.6397 9 16.4489 9 16.25V10.25C9 10.0511 9.07902 9.86032 9.21967 9.71967C9.36032 9.57902 9.55109 9.5 9.75 9.5C9.94891 9.5 10.1397 9.57902 10.2803 9.71967C10.421 9.86032 10.5 10.0511 10.5 10.25ZM15 10.25V16.25C15 16.4489 14.921 16.6397 14.7803 16.7803C14.6397 16.921 14.4489 17 14.25 17C14.0511 17 13.8603 16.921 13.7197 16.7803C13.579 16.6397 13.5 16.4489 13.5 16.25V10.25C13.5 10.0511 13.579 9.86032 13.7197 9.71967C13.8603 9.57902 14.0511 9.5 14.25 9.5C14.4489 9.5 14.6397 9.57902 14.7803 9.71967C14.921 9.86032 15 10.0511 15 10.25Z" fill="#3D3D3D" style="mix-blend-mode:overlay"/>
</svg>
